Coordinates
version=1
nRows=24
nColumns=19
inDegrees=yes

Units are S.I. units (second, meters, Newtons, ...)
If the header above contains a line with 'inDegrees', this indicates whether rotational values are in degrees (yes) or radians (no).

endheader
time	pelvis_tilt	pelvis_list	pelvis_rotation	pelvis_tx	pelvis_ty	pelvis_tz	hip_flexion_r	hip_adduction_r	hip_rotation_r	knee_angle_r	knee_angle_r_beta	ankle_angle_r	hip_flexion_l	hip_adduction_l	hip_rotation_l	knee_angle_l	knee_angle_l_beta	ankle_angle_l
     16.72000000	     -0.04128727	      6.89862379	      5.66639971	      2.34728275	      0.95667373	      1.04033002	    -12.36157775	     -9.39963948	    -15.96200812	     84.38467632	      1.47279044	     -6.36661733	     21.35196294	     12.39120302	      2.42435996	     16.93984055	      0.29565599	      4.98870174
     16.72666667	      0.62097225	      7.49003778	      6.09578708	      2.34550414	      0.95167537	      1.03912699	    -11.55229325	    -10.06318909	    -15.67734883	     88.67673937	      1.54770107	     -5.46067619	     20.91472793	     12.96277577	      1.50000316	     19.75233808	      0.34474333	      4.98192044
     16.73333333	      0.21010576	      7.60891559	      6.37269922	      2.34338426	      0.94530092	      1.03820085	     -9.16482313	    -10.22693060	    -14.74650181	     93.11038513	      1.62508279	     -4.70424062	     21.91205882	     13.03281896	      0.47892992	     23.15857984	      0.40419347	      5.39143586
     16.74000000	      0.40945386	      7.96978169	      6.70536222	      2.34113421	      0.93937038	      1.03745450	     -7.51519100	    -10.57745322	    -14.03525417	     97.28019323	      1.69785967	     -4.03748752	     22.18820883	     13.30852599	     -0.29102464	     26.59994411	      0.46425661	      6.08204137
     16.74666667	      0.56933592	      8.28439951	      6.97115724	      2.33869452	      0.93339201	      1.03695622	     -5.68951654	    -10.86623375	    -13.19039801	    101.30639076	      1.76813007	     -3.49012829	     22.49602106	     13.50921336	     -0.92618708	     30.09230054	      0.52520972	      7.13741119
     16.75333333	      0.67032129	      8.55784183	      7.20031340	      2.33607711	      0.92751986	      1.03668396	     -3.67600248	    -11.09623435	    -12.25144221	    105.14794420	      1.83517783	     -3.01445687	     22.78511272	     13.66697545	     -1.37512869	     33.48721480	      0.58446216	      8.50215018
     16.76000000	      0.76276485	      8.81933247	      7.31695992	      2.33334753	      0.92202339	      1.03666161	     -1.50586824	    -11.33527361	    -11.16957145	    108.77201781	      1.89842984	     -2.76548541	     22.92837594	     13.79525460	     -1.70294352	     36.63154912	      0.63934114	     10.19096086
     16.76666667	      0.79322761	      9.05511335	      7.37005203	      2.33050658	      0.91699742	      1.03685378	      0.86847625	    -11.56192153	     -9.99566800	    112.13488404	      1.95712293	     -2.57461070	     22.94345479	     13.90070888	     -1.89308229	     39.44009488	      0.68835951	     12.06228154
     16.77333333	      0.84990450	      9.27610470	      7.28918080	      2.32763822	      0.91271188	      1.03729441	      3.37104373	    -11.76949506	     -8.67159619	    115.18586946	      2.01037267	     -2.50077549	     22.67922938	     13.96153687	     -2.02777224	     41.79643982	      0.72948549	     14.08587409
     16.78000000	      1.03733787	      9.48574619	      7.10932342	      2.32487571	      0.90940080	      1.03795453	      5.82984310	    -11.94930910	     -7.29490719	    117.83249385	      2.05656498	     -2.46936268	     21.99543230	     13.96394491	     -2.12612832	     43.67024116	      0.76218949	     16.10616352
     16.78666667	      1.73265660	      9.59030377	      7.28816593	      2.32322190	      0.90806670	      1.03830836	      7.40261851	    -12.00368353	     -6.57282133	    119.58542569	      2.08715942	     -2.46861853	     20.25245250	     13.99697646	     -1.52915365	     44.87346752	      0.78318976	     18.18131404
     16.79333333	      4.14401416	      9.25190377	      7.74342787	      2.32349536	      0.91070262	      1.03864321	      6.53745862	    -11.29592890	     -6.85117751	    119.87094697	      2.09214270	     -2.53076951	     16.04812144	     13.38181091	     -0.26191366	     45.29919314	      0.79062007	     20.12652572
     16.80000000	      6.41920022	      8.94367053	      8.00006503	      2.32355825	      0.91383970	      1.03895845	      5.94991625	    -10.69988562	     -6.94881690	    119.91936844	      2.09298782	     -2.48597778	     11.75541657	     12.69034740	      0.89104410	     45.15485279	      0.78810085	     21.85229818
     16.80666667	      8.03046135	      8.46170902	      7.96844672	      2.32309402	      0.91674810	      1.03935944	      6.41423125	    -10.03289315	     -6.65064130	    119.93608149	      2.09327951	     -2.33964346	      8.10788644	     11.79975211	      1.68041257	     44.63182749	      0.77897234	     23.26198670
     16.81333333	      8.26840546	      7.67295387	      8.01739691	      2.32229743	      0.91862032	      1.03934796	      8.59995654	     -9.23608963	     -6.22485522	    119.94380375	      2.09341429	     -2.10856935	      5.97456166	     10.81955173	      2.44383101	     44.01230874	      0.76815970	     24.32386321
     16.82000000	      9.10465829	      7.18817714	      7.18299592	      2.32082686	      0.92113379	      1.04007429	     10.40377209	     -8.70055993	     -5.07759376	    119.94328028	      2.09340516	     -1.68401788	      3.03547607	      9.96285178	      2.17529816	     42.84200791	      0.74773410	     24.97224076
     16.82666667	      8.80025999	      6.58649332	      6.80940059	      2.31891734	      0.92246106	      1.04002217	     13.43670469	     -8.22547459	     -4.26136229	    119.93698455	      2.09329528	     -1.08775444	      1.40228511	      9.33372383	      2.47760624	     41.81713008	      0.72984660	     25.43334282
     16.83333333	      7.76579527	      6.23320946	      5.52586580	      2.31727957	      0.92332039	      1.04074842	     17.56192368	     -7.82306096	     -2.43607868	    119.92599063	      2.09310340	     -0.55470110	      0.41888931	      8.97492935	      1.47697550	     40.38894357	      0.70492005	     25.10443148
     16.84000000	      5.90815034	      5.95184397	      4.46524528	      2.31533129	      0.92300881	      1.04120080	     22.57741994	     -7.40386444	     -0.75648983	    119.89683669	      2.09259456	      0.03867015	      0.44665405	      8.85059417	      0.71403908	     39.22082275	      0.68453249	     24.63885522
     16.84666667	      3.85798831	      6.10093934	      3.30367309	      2.31345187	      0.92230946	      1.04164670	     27.76444731	     -7.26631844	      1.10142092	    119.78695050	      2.09067669	      0.68146954	      0.61505433	      9.19749034	     -0.18159594	     37.90905039	      0.66163775	     23.74621668
     16.85333333	      2.83310193	      6.10600701	      2.39004112	      2.31273327	      0.92364967	      1.04175763	     31.26373677	     -6.92249906	      2.30432902	    118.90814341	      2.07533861	      1.39359792	     -0.59222489	      9.34383563	     -0.66522939	     36.13472897	      0.63066999	     22.34162173
     16.86000000	      2.24947565	      5.30791011	      2.01023401	      2.31371064	      0.92726146	      1.04123813	     33.47053301	     -5.97581248	      2.27717461	    116.93982879	      2.04098504	      2.10859688	     -2.47737719	      8.59370022	     -0.64827525	     34.08428711	      0.59488303	     20.49766478
     16.86666667	      2.34001648	      4.31532421	      1.73610541	      2.31535886	      0.93225089	      1.04055623	     34.53579495	     -4.96976775	      1.81008778	    114.48393454	      1.99812160	      2.90253824	     -5.23584278	      7.60765216	     -0.54047577	     31.68103844	      0.55293843	     18.15874590
     16.87333333	      2.23947703	      3.25946532	      1.52261609	      2.31727670	      0.93730368	      1.03987289	     35.62741397	     -3.95827043	      1.20103677	    111.79056114	      1.95111336	      3.64919337	     -7.74760357	      6.54549235	     -0.53154541	     29.25150985	      0.51053516	     15.37630562
